<?xml version="1.0" encoding="UTF-8"?>
<svg enable-background="new 0 0 1641.33 1679.327" version="1.1" viewBox="0 0 1641.33 1679.327" xmlns="http://www.w3.org/2000/svg">
 <path d="m1540.8 973.17c0.6001-3.28 1.1901-6.55 1.78-9.81-0.08 0.67-0.17 1.35-0.27 2.05-0.39 2.1-0.7799 4.2-1.1799 6.29-0.1 0.49-0.2101 0.98-0.3301 1.47z"/>
 <path d="m1541.1 971.7c0.4-2.09 0.7899-4.19 1.1799-6.29-0.2999 2.0099-0.6899 4.1299-1.1799 6.29z" fill="#E6E6E6"/>
 <path d="m1536.9 288.59c1.4701 11.93-5.0499 53.2-10.87 68.81-2.48 6.67-19.71 33.64-30.26 47.38-15.61 20.32-29.72 0.06-41.12-14.85-22.4-29.27-47.96-56.11-76.08-79.94-10.77-9.14-69.23-41.25-69.22-56.39 0.02-17.62 45.25-49.4 85.61-60.14 27.54-7.33 45.94-5.94 72.27 5.46 40.76 17.65 64.58 48.31 69.67 89.67z" fill="#E6E6E6"/>
 <path d="m1284.8 188.77c7.63-7.7 14.11-13.47 20.8-18.32-7.1 6.15-13.91 12.58-20.8 18.32z" fill="#E6E6E6"/>
 <path d="m1320.1 161.47c-19.01 13.56-34.79 38.26-56.57 47.3 5.4-4.19 11.4-9.83 18.36-17.01 1-1.03 1.9701-2.02 2.9301-2.99 6.89-5.74 13.7-12.17 20.8-18.32 4.5799-3.32 9.26-6.21 14.48-8.98z"/>
 <path d="m1127.3 901.58c0.65-0.16 1.3101-0.33 1.99-0.5-0.6799 0.1799-1.34 0.3399-1.99 0.5z"/>
 <path d="m1126 901.89c0.4199-0.1 0.85-0.2 1.2799-0.31-0.4299 0.1099-0.86 0.2099-1.2799 0.31z"/>
 <path d="m1125 902.12c0.33-0.07 0.6599-0.15 1-0.23-0.3401 0.08-0.6701 0.16-1 0.23z"/>
 <path d="m1122 902.75c0.98-0.19 1.99-0.4 3.04-0.63-1.0501 0.24-2.0601 0.45-3.04 0.63z"/>
 <path d="m1119.2 1201.4c-0.8401-3.72-2.4701-6.99-5.6001-8.84 1.3201 0.5499 2.41 1.27 3.27 2.16 1.59 1.66 2.3701 3.88 2.3301 6.68z"/>
 <path d="m1118 903.39c0.24-0.03 0.48-0.07 0.73-0.1-0.25 0.04-0.49 0.0699-0.73 0.1z"/>
 <path d="m1118 903.39c-0.5701 0.07-1.14 0.14-1.7001 0.19-0.1699 0.02-0.34 0.04-0.52 0.05-0.5099 0.04-1.0199 0.08-1.5199 0.11-0.37 0.02-0.74 0.04-1.1101 0.05-0.4399 0.01-0.8899 0.02-1.33 0.02l-4.7-0.27c-0.48-0.06-0.9601-0.13-1.4501-0.21l-7.27-1.77c-0.5499-0.18-1.11-0.37-1.6699-0.57l-3.09-1.19-2.2001-0.92-6.91-3.25c-28.19-14.05-42.07-40.43-38.89-73.91 2.1699-22.9 25.13-70.2 42.52-87.58 35.23-35.23 84.88-15.15 99.22 40.13 14.64 56.44-10.87 113.92-56.03 126.26-0.7001 0.19-1.39 0.3701-2.0601 0.55-0.6799 0.17-1.34 0.34-1.99 0.5-0.4299 0.11-0.86 0.21-1.2799 0.31-0.3401 0.08-0.67 0.16-1 0.23-1.05 0.23-2.0601 0.44-3.04 0.63-1.12 0.21-2.2001 0.39-3.25 0.54-0.2499 0.03-0.4899 0.07-0.7299 0.1001z"/>
 <path d="m1115.7 903.63c0.1801-0.01 0.3501-0.03 0.52-0.05-0.1699 0.02-0.35 0.04-0.52 0.05z"/>
 <path d="m1114.2 903.74c0.5-0.03 1.01-0.07 1.5199-0.11-0.5099 0.05-1.0199 0.0801-1.5199 0.11z"/>
 <path d="m1113.1 903.79c0.3701-0.01 0.7401-0.03 1.1101-0.05-0.37 0.02-0.74 0.04-1.1101 0.05z"/>
 <path d="m1111.8 903.81c0.4401 0 0.89-0.01 1.33-0.02-0.44 0.01-0.8899 0.02-1.33 0.02z"/>
 <path d="m1111.8 903.81l-4.7-0.27 4.7 0.27z"/>
 <path d="m1110.1 1088.2c0-2.3201-0.42-4.92-1.1901-7.6801 0.77 2.76 1.2001 5.37 1.2001 7.6801 0 3.2999-1.01 8-2.63 13.07 1.6099-5.0699 2.62-9.77 2.62-13.07z" fill="#E6E6E6"/>
 <path d="m1105.6 903.33c0.49 0.08 0.9701 0.15 1.4501 0.21-0.48-0.0601-0.9701-0.1301-1.4501-0.21z"/>
 <path d="m1107.5 1101.2c-0.4401 1.39-0.92 2.8-1.4401 4.21 0.52-1.4099 1-2.82 1.4401-4.21z" fill="#E6E6E6"/>
 <path d="m1098.4 901.56l7.27 1.77c-2.37-0.36-4.76-0.95-7.27-1.77z"/>
 <path d="m1106 1105.4c-0.35 0.9501-0.71 1.9-1.09 2.8401 0.38-0.9401 0.74-1.89 1.09-2.8401z" fill="#E6E6E6"/>
 <path d="m1096.7 900.99c0.5599 0.2 1.12 0.39 1.6699 0.57-0.55-0.18-1.11-0.37-1.6699-0.57z"/>
 <path d="m1093.6 899.8l3.09 1.19c-1-0.36-2.0301-0.75-3.09-1.19z"/>
 <path d="m1094.5 1127.1h0.01c-0.09 0.1001-0.1801 0.2001-0.28 0.29 0.09-0.0899 0.1801-0.1899 0.27-0.29z" fill="#E6E6E6"/>
 <path d="m1091.4 898.88l2.2001 0.92c-0.7201-0.2799-1.4501-0.5899-2.2001-0.92z"/>
 <path d="m1084.5 895.63l6.91 3.25c-2.16-0.94-4.4499-2.02-6.91-3.25z"/>
 <path d="m1079.6 1336.3c0.2899 0.5 0.5499 0.9901 0.7999 1.4901-0.25-0.4901-0.52-0.9901-0.7999-1.4901z" fill="#E6E6E6"/>
 <path d="m1077.7 1333.3c0.51 0.77 0.99 1.53 1.4299 2.29-0.4499-0.7499-0.9199-1.5199-1.4299-2.29z" fill="#E6E6E6"/>
 <path d="m1076.1 1330.9c0.58 0.7899 1.12 1.5599 1.63 2.33-0.51-0.7701-1.0601-1.5501-1.63-2.33z" fill="#E6E6E6"/>
 <path d="m1074.3 1328.5c0.64 0.7999 1.25 1.6 1.8201 2.38-0.5801-0.7901-1.1901-1.5801-1.8201-2.38z" fill="#E6E6E6"/>
 <path d="m1072.3 1326.1c-1.1-1.29-2.1499-2.47-3.1599-3.5499 1.01 1.08 2.0599 2.2599 3.1699 3.5499 0.4701 0.55 0.92 1.09 1.36 1.63-0.45-0.54-0.8999-1.0799-1.37-1.63z" fill="#E6E6E6"/>
 <path d="m1104.1 1068.8c2.08 3.9299 3.75 7.95 4.7899 11.68 0.77 2.76 1.1901 5.36 1.1901 7.6801 0 3.2999-1.01 8-2.62 13.07-0.4401 1.39-0.92 2.8-1.4401 4.21-0.35 0.9501-0.71 1.9-1.09 2.8401-3.02 7.5499-6.9 14.88-10.38 18.79-0.09 0.1001-0.1801 0.2001-0.27 0.29-2.9199 3.02-9.11 5.4301-14.02 5.4301-3.0399 0-5.61-0.5901-7.87-2.1001-1.59-1.0599-3.02-2.6-4.36-4.71-4.37-6.88-7.72-19.93-12.08-43.38-2.89-15.51-4.35-23.58-4.37-28.3-0.03-4.87 1.48-6.1901 4.5599-8.4401 4.26-3.12 8.7001-4.54 13.62-4.23 4.92 0.3099 10.33 2.34 16.51 6.11 6.4502 3.9401 13.18 12.29 17.83 21.06z" fill="#fff"/>
 <path d="m1064.4 1318c1.49 1.27 3.0599 2.8 4.75 4.6001 1.01 1.08 2.0599 2.2599 3.1599 3.5499 0.4701 0.55 0.92 1.09 1.37 1.63 0.2201 0.27 0.4301 0.54 0.65 0.8101 0.63 0.7999 1.24 1.59 1.8201 2.38v0.01c0.5699 0.7799 1.12 1.5599 1.63 2.33s0.98 1.54 1.4299 2.29c0.14 0.25 0.29 0.5099 0.4301 0.7599 0.2799 0.5 0.5499 1 0.7999 1.4901 5.27 10.31 4.1801 19.34-3.75 28.46-5.52 6.35-14.35 12.74-26.68 19.63-20.33 11.38-29.61 13.71-35.98 8.6699-0.42-0.34-0.83-0.7-1.23-1.11-0.6-0.6-1.13-1.23-1.59-1.89-0.34-0.49-0.64-1-0.9-1.5299-3.4-7.02 0.52-17.52 13.1-36.67 2.35-3.58 4.64-7.3199 6.7501-10.96 2.1-3.64 4.0199-7.17 5.59-10.32 2.22-4.4299 3.77-8.11 4.24-10.24 1.6899-7.6599 3.78-9.4 11.35-9.4 4.5198 0 8.4499 1.57 13.06 5.51z" fill="#fff"/>
 <path d="m1011.2 1391.6c0.46 0.66 0.99 1.29 1.59 1.89h-0.01c-0.5999-0.6-1.13-1.23-1.58-1.89z" fill="#E6E6E6"/>
 <path d="m1010.3 1390c0.26 0.5299 0.56 1.0399 0.9 1.5299-0.34-0.49-0.6399-1-0.9-1.5299z" fill="#E6E6E6"/>
 <path d="m1023.3 1353.4c2.35-3.58 4.65-7.3199 6.7601-10.96-2.1101 3.64-4.4 7.38-6.7501 10.96-12.58 19.15-16.5 29.65-13.1 36.67-3.4-7.02 0.5101-17.52 13.09-36.67z" fill="#E6E6E6"/>
 <path d="m919.57 995.05c0.53 0.09 1.08 0.18 1.64 0.28-0.56-0.1-1.11-0.1899-1.64-0.28z" fill="#E6E6E6"/>
 <path d="m911.92 993.91c-0.57-0.06-1.11-0.11-1.63-0.16 0.52 0.04 1.07 0.1 1.63 0.16z" fill="#E6E6E6"/>
 <path d="m906.5 993.59c1.13-0.02 2.38 0.03 3.79 0.16-1.41-0.1201-2.66-0.1801-3.79-0.16z" fill="#E6E6E6"/>
 <path d="m906.5 993.59c-0.44 0.0099-0.86 0.02-1.27 0.05 0.4101-0.0401 0.83-0.05 1.27-0.05z" fill="#E6E6E6"/>
 <path d="m904.64 993.68c0.19-0.02 0.39-0.03 0.59-0.04-0.2001 0.0101-0.4 0.03-0.59 0.04z" fill="#E6E6E6"/>
 <path d="m903.62 993.81c0.33-0.06 0.67-0.1 1.02-0.13-0.35 0.04-0.6899 0.08-1.02 0.13z" fill="#E6E6E6"/>
 <path d="m903.51 993.83c-0.18 0.03-0.36 0.06-0.54 0.09 0.1701-0.03 0.3601-0.0701 0.54-0.09z" fill="#E6E6E6"/>
 <path d="m911.92 993.91c2.15 0.25 4.66 0.63 7.65 1.14 0.53 0.09 1.08 0.18 1.64 0.28 2.58 0.46 5.4901 1 8.8101 1.63 35.97 6.8199 48.67 12.55 51.33 23.13 0.72 2.87 0.85 5.27 0.25 7.6299-0.06 0.2101-0.13 0.42-0.19 0.62-0.04 0.13-0.07 0.26-0.12 0.39-0.93 2.6801-2.85 5.38-5.97 8.73-3.1 3.3201-6.76 8.91-9.54 14.34-0.1 0.2-0.19 0.3899-0.28 0.58-0.16 0.3-0.31 0.6-0.45 0.9-0.95 1.96-1.77 3.87-2.38 5.61-2.45 6.96-10.44 19.09-17.76 26.95-2.48 2.66-4.84 4.9401-7.09 6.86-12.19 10.33-21.38 9.8101-30.03-1.1899-9.2-11.7-16.57-37.25-18.83-65.33-1.8-22.33-1.53-23.55 6.4301-28.77 0.09-0.06 0.18-0.11 0.27-0.17 0.29-0.19 0.58-0.37 0.86-0.55 0.14-0.08 0.28-0.17 0.41-0.25 0.34-0.21 0.68-0.41 1.02-0.6 0.07-0.04 0.15-0.08 0.22-0.1201 0.38-0.2 0.75-0.39 1.11-0.5699 0.04-0.02 0.08-0.04 0.12-0.05 0.4-0.19 0.79-0.35 1.19-0.5 0.02-0.0099 0.04-0.02 0.06-0.02 0.42-0.16 0.84-0.3 1.28-0.42h0.01c0.33-0.09 0.68-0.17 1.03-0.24 0.18-0.03 0.36-0.06 0.54-0.09 0.03-0.01 0.07-0.01 0.11-0.02 0.33-0.05 0.67-0.09 1.02-0.13 0.19-0.01 0.39-0.03 0.59-0.04 0.41-0.03 0.83-0.04 1.27-0.05 1.13-0.02 2.38 0.04 3.79 0.16 0.5198 0.05 1.0598 0.1 1.6298 0.16z" fill="#fff"/>
 <path d="m918.18 1360.1c3.15 5.23 9.4 14.49 13.89 20.6 1.2 1.63 2.34 3.5 3.37 5.4501 2.82 5.33 4.79 11.31 4.79 15.13 0 4.9399-0.89 7.8199-3.83 10.18-1.59 1.28-3.78 2.42-6.79 3.64-8.1 3.3201-24.93 6-38.37 6.6801-6.33 0.3199-11.9 0.2-15.46-0.52-3.83-0.77-7.64-3.1901-10.78-6.37-0.32-0.3201-0.62-0.64-0.93-0.98-1.5-1.66-2.82-3.5-3.89-5.41-2.26-4.0601-3.35-8.4-2.48-11.99 0.97-4.02 4.95-11.72 8.85-17.11 3.89-5.39 11.1-16.79 16.02-25.32 4.91-8.53 11.08-15.51 13.7-15.51 5.5601 0 13.85 8.14 21.91 21.53z" fill="#fff"/>
 <path d="m864.07 1413.9c0.31 0.34 0.61 0.6599 0.93 0.98-0.32-0.3101-0.63-0.6401-0.93-0.98z" fill="#E6E6E6"/>
 <path d="m836.09 982.15c0.8 0.53 1.52 1.12 2.16 1.77-0.64-0.6401-1.3599-1.2301-2.16-1.77z" fill="#E6E6E6"/>
 <path d="m828.95 979.19c1.65 0.41 3.13 0.91 4.45 1.5-1.32-0.58-2.8001-1.08-4.45-1.5z" fill="#E6E6E6"/>
 <path d="m815.09 977.49c5.57 0.21 10.15 0.75 13.86 1.7-3.71-0.94-8.29-1.48-13.86-1.69-0.85-0.04-1.7599-0.08-2.71-0.13 0.9501 0.05 1.86 0.0901 2.71 0.12z" fill="#E6E6E6"/>
 <path d="m807.86 977.09c1.58 0.11 3.1 0.2 4.52 0.28-1.42-0.0801-2.94-0.17-4.52-0.28z" fill="#E6E6E6"/>
 <path d="m804.62 976.85c1.1 0.09 2.19 0.17 3.24 0.2401-1.05-0.07-2.14-0.1501-3.24-0.2401z" fill="#E6E6E6"/>
 <path d="m798.92 1364.3c3.13 13.01 4.28 25.54 2.64 33.61l0.74-8.58c0-7.2301-1.2199-16.01-3.38-25.03z" fill="#E6E6E6"/>
 <path d="m797.89 1405.5c0.1-0.09 0.2-0.1799 0.29-0.27-0.0901 0.0901-0.1901 0.18-0.29 0.27z" fill="#fff"/>
 <path d="m791.49 1070.8c4.91 0.29 10.77-3.7899 18.15-12.23-3.97 4.65-11.46 13.3-18.15 12.23z" fill="#fff"/>
 <path d="m796.33 1354.8c0.98 3.14 1.84 6.3 2.59 9.4301-0.7601-3.1301-1.6301-6.3001-2.59-9.4301z" fill="#E6E6E6"/>
 <path d="m794.8 1350.2c0.54 1.5399 1.05 3.11 1.53 4.6699-0.49-1.56-0.9999-3.12-1.53-4.6699z" fill="#E6E6E6"/>
 <path d="m793.98 1347.8c0.28 0.76 0.56 1.53 0.82 2.3101-0.27-0.7701-0.54-1.5401-0.82-2.3101z" fill="#E6E6E6"/>
 <path d="m791.78 1342.2c0.77 1.8401 1.51 3.7301 2.2 5.65-0.7-1.9099-1.44-3.7999-2.2-5.65z" fill="#E6E6E6"/>
 <path d="m790.84 1340c0.32 0.72 0.64 1.45 0.94 2.1899-0.31-0.7399-0.63-1.4699-0.94-2.1899z" fill="#E6E6E6"/>
 <path d="m788.87 1335.7c0.34 0.6901 0.68 1.39 1 2.1-0.33-0.71-0.66-1.4099-1-2.1z" fill="#E6E6E6"/>
 <path d="m785.7 1329.8c0.73 1.26 1.45 2.5599 2.14 3.9099-0.7-1.35-1.4101-2.6499-2.14-3.9099z" fill="#E6E6E6"/>
 <path d="m783.45 1326.2c0.39 0.58 0.77 1.1699 1.14 1.77-0.3801-0.6101-0.76-1.2001-1.14-1.77z" fill="#E6E6E6"/>
 <path d="m783.92 1066.1c0.12 0.15 0.23 0.3 0.35 0.4301-0.12-0.14-0.24-0.2801-0.35-0.4301z" fill="#E6E6E6"/>
 <path d="m781.71 1323.6c0.39 0.54 0.78 1.09 1.17 1.66-0.39-0.57-0.78-1.1199-1.17-1.66z" fill="#E6E6E6"/>
 <path d="m781.89 1063c0.11 0.1901 0.22 0.38 0.33 0.5701-0.1101-0.1901-0.2201-0.38-0.33-0.5701z" fill="#E6E6E6"/>
 <path d="m777.83 1053.8c0.2 0.48 0.39 0.98 0.59 1.48-0.2001-0.5-0.3901-1-0.59-1.48z" fill="#fff"/>
 <path d="m776.01 1049.7c0.21 0.4299 0.41 0.87 0.61 1.3199-0.2-0.4499-0.41-0.89-0.61-1.3199z" fill="#fff"/>
 <path d="m770.34 1041.3c1.09 0 3.34 3.41 5.67 8.3401 0.2 0.4299 0.41 0.87 0.61 1.3199 0.4 0.89 0.81 1.83 1.21 2.8101 0.2 0.48 0.39 0.98 0.59 1.48 0.1 0.25 0.19 0.5 0.29 0.75 0.25 0.6599 0.5 1.2899 0.76 1.9-3.35-5.0701-6.78-10.49-9.97-16.12-0.42-0.74-0.84-1.49-1.25-2.24 0.81 1.13 1.5201 1.76 2.09 1.76z" fill="#fff"/>
 <path d="m768.09 973.03c-0.17 0-0.34 0-0.5 0.01 0.08-0.01 0.17-0.01 0.26-0.01h0.24z" fill="#fff"/>
 <path d="m767.59 973.04c-0.19 0-0.38 0.01-0.56 0.02 0.18-0.02 0.37-0.02 0.56-0.02z" fill="#fff"/>
 <path d="m894.99 781.12c1.77 25.34-6.76 44.82-27.33 62.44-30.13 25.8-66.98 33.08-109.36 21.6-12.92-3.5-27.62-8.98-32.66-12.18-19.72-12.52-41.17-32.67-47.07-44.24-7.31-14.33-8.15-40.59-1.77-55.84 4.86-11.65 22.01-26.15 39.65-33.52 16.19-6.76 52.79-9.32 73.68-5.14 9.8 1.96 21.74 4.21 26.55 5 4.8 0.8 18.63 6.35 30.73 12.33 23.29 11.52 46.62 35.81 47.58 49.55z"/>
 <path d="m842.23 995.54c0 7.68-8.01 25.78-17.68 41.92-4.59 7.66-9.55 14.88-14.21 20.33-0.22 0.26-0.46 0.5299-0.7 0.8199-7.38 8.4401-13.24 12.52-18.15 12.23-0.01 0.01-0.02 0.01-0.03 0-0.91-0.15-1.8-0.47-2.66-1.01-2.1-1.2999-3.58-3.38-4.97-5.4199-1.42-2.0901-2.88-4.25-4.36-6.48-0.26-0.6101-0.51-1.2401-0.76-1.9-0.1-0.25-0.1899-0.5-0.29-0.75-0.2-0.5-0.39-1-0.59-1.48-0.4-0.9801-0.81-1.92-1.21-2.8101-0.2-0.45-0.4-0.89-0.61-1.3199-2.33-4.9301-4.58-8.3401-5.67-8.3401-0.5699 0-1.28-0.63-2.09-1.76-1.39-2.5299-2.74-5.1-4-7.7-0.02-0.03-0.04-0.0601-0.05-0.09-0.62-1.4501-1.25-3.01-1.88-4.65-4.1-10.71-8.03-24.75-8.27-31.98-0.01-0.23-0.01-0.46-0.01-0.69 0-1.47 0.12-3.04 0.35-4.62 0.34-2.38 0.9-4.78 1.6-6.9 0.12-0.35 0.24-0.69 0.36-1.03 0 0 0.01 0 0.01-0.0099 0.24-0.66 0.51-1.29 0.78-1.88 0.0699-0.15 0.14-0.29 0.21-0.44 0.14-0.28 0.29-0.55 0.43-0.8 0.22-0.3799 0.44-0.73 0.67-1.04 0.03-0.03 0.05-0.06 0.08-0.09 0.1-0.15 0.21-0.29 0.32-0.4301 0.05-0.0699 0.1-0.1299 0.15-0.19 0.09-0.11 0.17-0.22 0.25-0.3199 0.06-0.06 0.11-0.12 0.16-0.19 0.09-0.1 0.18-0.2 0.27-0.3 0.05-0.05 0.09-0.1 0.14-0.16 0.13-0.13 0.26-0.26 0.38-0.39 0.02-0.01 0.03-0.02 0.04-0.03 0.13-0.14 0.27-0.26 0.41-0.38 0.04-0.04 0.09-0.08 0.14-0.11 0.1-0.09 0.2-0.17 0.3-0.25 0.05-0.04 0.1-0.08 0.16-0.11 0.1-0.08 0.21-0.16 0.32-0.23 0.05-0.03 0.09-0.06 0.14-0.09 0.3101-0.2 0.65-0.37 1-0.53 0.04-0.02 0.09-0.04 0.13-0.06 0.14-0.05 0.27-0.11 0.41-0.16 0.06-0.02 0.11-0.04 0.17-0.06 0.14-0.05 0.29-0.09 0.45-0.14 0.04-0.01 0.09-0.02 0.13-0.04 0.41-0.11 0.85-0.2 1.32-0.27 0.04 0 0.08-0.01 0.12-0.01 0.19-0.03 0.4-0.05 0.61-0.07 0.05-0.01 0.1-0.02 0.16-0.02 0.22-0.02 0.45-0.04 0.6801-0.05h0.14c0.18-0.01 0.37-0.02 0.56-0.02 0.16-0.01 0.33-0.01 0.5-0.01 0.28 0 0.58 0 0.87 0.01h0.11c0.77 0.02 1.6 0.07 2.51 0.14 0.05 0.01 0.1 0.01 0.16 0.02 0.88 0.07 1.84 0.17 2.88 0.29 0.11 0.01 0.23 0.03 0.35 0.04 0.47 0.0601 0.95 0.1201 1.45 0.1801 0.09 0.0099 0.2 0.03 0.3 0.04 0.45 0.06 0.93 0.12 1.42 0.19 0.22 0.03 0.45 0.06 0.68 0.09 0.39 0.0601 0.79 0.1201 1.2 0.1801 0.16 0.02 0.31 0.04 0.48 0.06 2.6 0.38 5.63 0.7599 8.85 1.13 4.93 0.56 10.3 1.0699 15.27 1.45 1.1 0.09 2.19 0.17 3.24 0.2401 1.58 0.11 3.1 0.2 4.52 0.28 0.95 0.05 1.86 0.09 2.71 0.13 5.57 0.21 10.15 0.75 13.86 1.69 1.65 0.42 3.13 0.92 4.45 1.5 0.98 0.44 1.88 0.92 2.69 1.46 0.8 0.54 1.52 1.1299 2.16 1.77 2.77 2.7797 3.9799 6.5796 3.9799 11.62z" fill="#fff"/>
 <path d="m759.9 1310.3c0.23-0.0801 0.47-0.14 0.7-0.2001 0.06-0.0199 0.11-0.0299 0.17-0.0499 0.27-0.0601 0.54-0.11 0.81-0.16 0.0099 0 0.03 0 0.04-0.01 0.3-0.04 0.59-0.08 0.89-0.1 0.17-0.01 0.35-0.01 0.52-0.01 0.14 0 0.27-0.01 0.4-0.01 0.17 0 0.34 0.02 0.51 0.03 0.15 0.01 0.3 0.02 0.45 0.04 0.16 0.0099 0.33 0.0399 0.5 0.0699 0.15 0.02 0.3 0.05 0.45 0.08 0.17 0.03 0.33 0.0701 0.5 0.11 0.15 0.04 0.31 0.0801 0.47 0.13 0.16 0.05 0.32 0.1001 0.49 0.15 0.16 0.0601 0.32 0.12 0.48 0.1801 0.16 0.0599 0.32 0.12 0.48 0.1899 0.17 0.0801 0.34 0.16 0.51 0.24 0.16 0.0701 0.31 0.14 0.47 0.2201 0.18 0.1 0.37 0.2 0.56 0.3099 0.14 0.08 0.28 0.15 0.42 0.24 0.26 0.15 0.52 0.3201 0.79 0.49 0.12 0.0901 0.25 0.17 0.38 0.26 0.27 0.1901 0.55 0.39 0.83 0.6 0.12 0.0901 0.26 0.2001 0.39 0.3 0.21 0.17 0.43 0.34 0.64 0.52 0.15 0.12 0.29 0.24 0.43 0.37 0.21 0.1799 0.42 0.36 0.63 0.5499 0.15 0.13 0.3 0.27 0.45 0.4 0.21 0.2001 0.42 0.4 0.63 0.61 0.15 0.14 0.3 0.29 0.45 0.4401 0.22 0.22 0.44 0.4399 0.67 0.67 0.14 0.1499 0.29 0.2999 0.43 0.46 0.24 0.25 0.48 0.5 0.72 0.77 0.14 0.1499 0.27 0.2899 0.41 0.45 0.27 0.3 0.54 0.61 0.82 0.9301 0.11 0.12 0.22 0.25 0.33 0.38 0.39 0.45 0.79 0.9199 1.19 1.3999 0.61 0.74 1.21 1.51 1.8 2.3101 0.39 0.54 0.78 1.09 1.17 1.66 0.19 0.2799 0.38 0.5699 0.57 0.86 0.38 0.5699 0.7599 1.1599 1.14 1.77 0.37 0.6 0.7401 1.23 1.11 1.86 0.73 1.26 1.44 2.5599 2.14 3.9099 0.35 0.67 0.69 1.3601 1.03 2.05 0.34 0.6901 0.67 1.39 1 2.1 0.33 0.7101 0.65 1.4301 0.97 2.16 0.31 0.72 0.63 1.45 0.94 2.1899 0.76 1.8501 1.5 3.7401 2.2 5.65 0.28 0.77 0.55 1.54 0.82 2.3101 0.53 1.5499 1.04 3.11 1.53 4.6699 0 0-0.01 0.01 0 0.01 0.96 3.13 1.83 6.3 2.59 9.4301 0 0-0.01 0.01 0 0.01 2.16 9.02 3.38 17.8 3.38 25.03l-0.74 8.58-3.38 7.3099c-0.09 0.0901-0.19 0.1801-0.29 0.27-0.1 0.0801-0.2 0.16-0.3 0.24-4.77 3.61-11.15 5.28-15.22 4.4-1.17-0.26-2.16-0.71-2.85-1.4-0.46-0.47-3.5-1.1799-8.04-1.97-4.9-0.84-11.55-1.78-18.67-2.58-29.1-3.26-41.24-9.7101-41.24-21.92 0-5.83 9.9-24.74 20.7-41.41 5.84-9.01 11.94-17.37 16.89-22.66 0.07-0.0701 0.13-0.14 0.2-0.2101 0.26-0.2699 0.52-0.5499 0.78-0.8099l0.36-0.36c0.21-0.2101 0.42-0.42 0.62-0.61 0.12-0.13 0.25-0.24 0.37-0.3601 0.2-0.1899 0.4-0.37 0.59-0.5499 0.1299-0.12 0.25-0.23 0.37-0.33 0.2-0.1801 0.4-0.3601 0.6-0.53 0.11-0.0901 0.22-0.1901 0.33-0.28 0.22-0.1801 0.43-0.35 0.64-0.52 0.09-0.0699 0.1899-0.15 0.28-0.22 0.25-0.2 0.5-0.38 0.75-0.5601 0.05-0.0399 0.1-0.08 0.15-0.11 0.62-0.4399 1.24-0.83 1.84-1.1799 0.03-0.01 0.06-0.03 0.09-0.05 0.27-0.15 0.53-0.29 0.8-0.41 0.06-0.0299 0.12-0.0599 0.18-0.09 0.23-0.11 0.47-0.22 0.7-0.3099 0.07-0.03 0.14-0.0601 0.21-0.0901 0.22-0.09 0.45-0.1699 0.68-0.25 0.06-0.02 0.1301-0.0399 0.2-0.0599z" fill="#fff"/>
 <path d="m762.32 1027.1c0.63 1.64 1.26 3.2 1.88 4.65-5.81-11.94-10.01-24.5-10.15-36.63 0.24 7.23 4.17 21.27 8.27 31.98z" fill="#fff"/>
 <path d="m666.61 963.52h0.23c-0.17 0-0.33 0.0099-0.5 0.02 0.09-0.0101 0.1801-0.02 0.27-0.02z" fill="#fff"/>
 <path d="m665.52 963.63c0.27-0.04 0.53-0.07 0.8-0.09-0.2701 0.02-0.5401 0.0501-0.8 0.09z" fill="#fff"/>
 <path d="m646.76 1078c-0.46 0.0801-0.93 0.13-1.4 0.13-3.12 0.01-6.35-1.7799-9.85-5.24-0.21-0.2-0.41-0.4099-0.62-0.63-0.62-0.64-1.25-1.34-1.89-2.08-0.42-0.5-0.86-1.02-1.29-1.5701-1.96-2.4399-4.0099-5.35-6.17-8.6899-17.53-27.09-27.07-42.09-32.22-51.55-5.03-9.24-5.87-13.21-5.87-18.01 0-5.64 2.0099-11.92 4.47-13.96 1.08-0.89 4.8-1.97 10.09-3.04 1.69-0.35 3.54-0.69 5.51-1.02 0.99-0.16 2.0099-0.33 3.05-0.49l1.59-0.24c1.61-0.24 3.27-0.47 4.98-0.69 3.41-0.44 6.98-0.85 10.61-1.19 17.25-1.63 32.81-3.86 34.58-4.96 0.27-0.17 0.56-0.31 0.86-0.44 0.06-0.03 0.12-0.05 0.18-0.08 0.61-0.25 1.27-0.43 1.97-0.54 0.06-0.0099 0.12-0.02 0.1801-0.03 0.2599-0.04 0.53-0.07 0.8-0.09h0.02c0.17-0.01 0.33-0.02 0.5-0.02 0.33-0.01 0.67-0.01 1.02 0.0099 0.05 0 0.1 0 0.16 0.01 0.41 0.02 0.84 0.06 1.27 0.12 0.04 0.01 0.08 0.01 0.12 0.02 0.44 0.06 0.88 0.14 1.32 0.24h0.03c0.45 0.1 0.9 0.22 1.35 0.35 0.06 0.02 0.12 0.03 0.18 0.05 0.45 0.14 0.89 0.28 1.34 0.45 0.02 0 0.03 0.0099 0.04 0.0099 0.45 0.17 0.89 0.35 1.33 0.54 0.04 0.02 0.08 0.04 0.12 0.05 0.44 0.2 0.88 0.41 1.31 0.63 0.05 0.03 0.1 0.06 0.16 0.08 0.87 0.46 1.71 0.96 2.52 1.52 0.05 0.03 0.1 0.06 0.15 0.1 0.4 0.27 0.79 0.56 1.16 0.85 0.04 0.03 0.07 0.06 0.11 0.09 0.37 0.3 0.7401 0.6 1.08 0.91l0.04 0.04c0.35 0.31 0.6801 0.64 1 0.97 0.05 0.05 0.1 0.1 0.14 0.16 0.32 0.33 0.62 0.67 0.9 1.02 0.01 0.02 0.03 0.04 0.04 0.06 0.27 0.34 0.52 0.68 0.76 1.03 0.03 0.05 0.06 0.1 0.09 0.14 0.23 0.36 0.45 0.72 0.64 1.09 0.03 0.06 0.07 0.12 0.1 0.18 0.19 0.38 0.36 0.76 0.51 1.14 0.4 1.05 0.68 2.17 0.84 3.44 0.83 6.9-2.08 18.29-11.22 45.96-11.49 34.78-19.74 51.58-28.69 53.17z" fill="#fff"/>
 <path d="m645.36 1078.1c0.47 0 0.94-0.0499 1.4-0.13-0.47 0.0901-0.9299 0.13-1.4 0.13z" fill="#E6E6E6"/>
 <path d="m634.89 1072.2c0.21 0.2201 0.41 0.4301 0.62 0.63-0.2001-0.1999-0.4101-0.4099-0.62-0.63z" fill="#E6E6E6"/>
 <path d="m633 1070.1c0.64 0.74 1.27 1.4399 1.89 2.08-0.6199-0.64-1.2499-1.34-1.89-2.08z" fill="#E6E6E6"/>
 <path d="m631.71 1068.6c0.4301 0.55 0.8701 1.0701 1.29 1.5701-0.43-0.5001-0.8599-1.0201-1.29-1.5701z" fill="#E6E6E6"/>
 <path d="m1170.5 1178.8c-3.83-51.48-13.16-115.05-52.28-152.13-32.48-30.8-78.42-46.85-120.47-56.48-37.62-8.62-75.56-15.89-113.7-21.81-74.7-11.58-150.22-17.94-225.8-18.99-50.67-0.71-101.82 1.03-151.02 13.14-31.71 7.81-62.63 20.09-90.05 37.97-28.23 18.41-33.46 34.09-49.88 60.24-50.3 80.06-28.25 200.1 27.27 270.74 41.29 52.51 98.7 78.2 161.17 93.89 75.03 18.85 151.02 33.84 227.58 44.9 22.77 3.2899 47.08 6.4399 71.99 8.42 76.96 6.1299 159.55 1.0999 219.34-45.58 6.59-5.15 20-12.9 29.8-17.23 66.11-29.24 70.53-156.79 66.05-217.08zm-114.41-132.97c4.26-3.12 8.7-4.54 13.62-4.23 4.92 0.3099 10.33 2.34 16.51 6.11 6.4501 3.9399 13.18 12.29 17.83 21.06 2.08 3.9301 3.75 7.95 4.79 11.68 0.1899 0.6899 0.3599 1.3699 0.51 2.0399 0.23 1 0.3999 1.98 0.51 2.92 0.1199 0.95 0.1799 1.85 0.1799 2.72 0 2.0601-0.39 4.6699-1.0901 7.58-0.1299 0.58-0.2799 1.17-0.45 1.77-0.3199 1.2101-0.6799 2.4501-1.09 3.7201-0.4401 1.3899-0.92 2.7999-1.4401 4.21-0.3499 0.95-0.71 1.8999-1.09 2.84-3.0199 7.5499-6.9 14.88-10.38 18.79h0.01c-0.09 0.1001-0.1799 0.2001-0.28 0.29-2.9199 3.02-9.1099 5.4301-14.02 5.4301-3.0399 0-5.6099-0.59-7.8699-2.1-1.5901-1.0601-3.02-2.6001-4.3601-4.71-4.3699-6.8801-7.72-19.93-12.08-43.38-2.89-15.51-4.35-23.58-4.37-28.3-0.0298-4.8702 1.4802-6.1902 4.5603-8.4402zm-160.75-48.45c0.09-0.06 0.1799-0.11 0.27-0.17 0.2899-0.1899 0.5798-0.37 0.8599-0.55 0.1401-0.08 0.28-0.17 0.41-0.25 0.34-0.21 0.6801-0.41 1.02-0.6 0.0699-0.04 0.15-0.08 0.2201-0.12 0.3799-0.2 0.75-0.39 1.1099-0.57 0.04-0.02 0.0801-0.04 0.1201-0.05 0.3999-0.19 0.7899-0.35 1.1899-0.5 0.02-0.01 0.04-0.02 0.0601-0.02 0.4199-0.16 0.8398-0.3 1.2799-0.42h0.01c0.33-0.09 0.6801-0.17 1.03-0.24 0.17-0.03 0.36-0.07 0.5399-0.09 0.03-0.01 0.0701-0.01 0.1101-0.02 0.33-0.06 0.6699-0.1 1.02-0.13 0.1899-0.02 0.3899-0.03 0.59-0.04 0.41-0.04 0.83-0.05 1.2699-0.05 1.1301-0.02 2.3801 0.03 3.79 0.16 0.52 0.04 1.0701 0.1 1.6301 0.16 2.1499 0.25 4.6599 0.63 7.6499 1.14 0.53 0.09 1.0801 0.18 1.64 0.28 2.58 0.46 5.49 1 8.8099 1.63 35.97 6.82 48.67 12.55 51.33 23.13 0.72 2.87 0.85 5.27 0.25 7.63-0.0601 0.21-0.13 0.42-0.1899 0.62-0.04 0.13-0.0701 0.26-0.1201 0.39-0.9299 2.6801-2.85 5.38-5.97 8.73-3.1 3.3201-6.76 8.91-9.54 14.34-0.1 0.2-0.1899 0.3899-0.28 0.58-0.1599 0.2999-0.3099 0.6-0.45 0.9-0.95 1.96-1.77 3.87-2.3799 5.61-2.4501 6.96-10.44 19.09-17.76 26.95-2.4801 2.66-4.8401 4.9401-7.0901 6.8601-12.19 10.33-21.38 9.8099-30.03-1.1901-9.2-11.7-16.57-37.25-18.83-65.33-1.7998-22.33-1.5299-23.55 6.4302-28.77zm-141-7.57c0.1599-1.19 0.3899-2.38 0.6599-3.55 0.13-0.58 0.28-1.15 0.4399-1.71 0.1501-0.56 0.3201-1.11 0.5-1.64 0.1101-0.35 0.2301-0.7 0.3601-1.03 0 0 0.01 0 0.01-0.01 0.24-0.67 0.5-1.3 0.78-1.88 0.0699-0.15 0.1399-0.29 0.21-0.44 0.1399-0.28 0.28-0.55 0.4299-0.8 0.22-0.38 0.4401-0.73 0.67-1.04 0.03-0.03 0.0499-0.06 0.08-0.09 0.1001-0.15 0.21-0.29 0.3201-0.43 0.05-0.07 0.1-0.13 0.1499-0.19 0.0901-0.11 0.1702-0.22 0.25-0.32 0.0601-0.06 0.1101-0.12 0.1602-0.19 0.0898-0.1 0.1799-0.2 0.2699-0.3 0.05-0.05 0.09-0.1 0.14-0.16 0.13-0.13 0.26-0.2599 0.38-0.39 0.02-0.01 0.03-0.02 0.0399-0.03 0.1301-0.14 0.27-0.26 0.4102-0.38 0.0399-0.04 0.0898-0.08 0.1399-0.11 0.1001-0.09 0.2-0.17 0.3-0.25 0.05-0.04 0.1-0.08 0.1599-0.11 0.1001-0.08 0.2101-0.16 0.3201-0.23 0.05-0.03 0.0901-0.06 0.14-0.09 0.3099-0.2 0.65-0.37 1-0.53 0.0399-0.02 0.09-0.04 0.13-0.06 0.14-0.05 0.27-0.11 0.4099-0.16 0.0601-0.02 0.1101-0.04 0.1702-0.06 0.1399-0.05 0.2899-0.09 0.45-0.14 0.04-0.01 0.09-0.02 0.1299-0.04 0.4102-0.11 0.8501-0.2 1.3201-0.27 0.04 0 0.0801-0.01 0.12-0.01 0.1901-0.03 0.4-0.05 0.61-0.07 0.05-0.01 0.1001-0.02 0.16-0.02 0.22-0.02 0.4501-0.04 0.6801-0.05h0.1399c0.1801-0.02 0.3701-0.02 0.5601-0.02 0.0801-0.01 0.1699-0.01 0.26-0.01h0.24c0.28 0 0.5801 0 0.87 0.01h0.11c0.77 0.02 1.6001 0.07 2.51 0.14 0.05 0.01 0.1 0.01 0.1599 0.02 0.8801 0.07 1.8401 0.17 2.8801 0.29 0.11 0.01 0.23 0.03 0.35 0.04 0.47 0.06 0.9501 0.12 1.4501 0.18 0.0898 0.01 0.2 0.03 0.2999 0.04 0.4501 0.06 0.9301 0.12 1.42 0.19 0.22 0.03 0.45 0.06 0.6799 0.09 0.39 0.06 0.79 0.12 1.2 0.18 0.16 0.02 0.3101 0.04 0.48 0.06 2.6001 0.38 5.6301 0.76 8.8501 1.13 4.9299 0.56 10.3 1.07 15.27 1.45 1.1 0.09 2.1899 0.17 3.24 0.24 1.58 0.11 3.1 0.2 4.52 0.28 0.71 0.04 1.3999 0.07 2.0599 0.1 0.2201 0 0.4401 0.01 0.65 0.02 0.7 0.03 1.38 0.0601 2.04 0.1 1 0.05 1.96 0.12 2.8899 0.2 1.8701 0.16 3.5901 0.36 5.1901 0.63 0.5299 0.09 1.0499 0.18 1.5599 0.28 0.5 0.1 0.99 0.21 1.47 0.32 0.2401 0.05 0.4801 0.11 0.7101 0.17 1.65 0.41 3.13 0.91 4.4501 1.5 0.98 0.44 1.8799 0.92 2.6899 1.46 0.2 0.13 0.3999 0.27 0.5801 0.41 0.5798 0.42 1.0999 0.87 1.5798 1.36 2.77 2.78 3.9801 6.58 3.9801 11.62 0 7.68-8.01 25.78-17.68 41.92-4.59 7.66-9.55 14.88-14.21 20.33-0.22 0.26-0.46 0.5299-0.7 0.8199-3.97 4.65-11.46 13.3-18.15 12.23-0.0099 0.01-0.0199 0.01-0.0299 0-0.52-0.03-1.0399-0.1199-1.5399-0.25-2.04-0.5399-3.9102-1.8899-5.6501-4.0599-0.1199-0.14-0.24-0.28-0.3499-0.4301-0.5801-0.76-1.1501-1.61-1.7001-2.5499-0.11-0.1901-0.2201-0.38-0.33-0.5701-0.8301-1.48-1.6401-3.16-2.42-5.05-3.35-5.0699-6.78-10.49-9.9701-16.12-0.4199-0.74-0.8398-1.49-1.25-2.24-1.1799-1.6599-2.5699-4.37-4-7.7-0.0199-0.03-0.0399-0.0601-0.0499-0.09-5.8099-11.94-10.01-24.5-10.15-36.63-0.01-0.23-0.01-0.46-0.01-0.69 0-1.4699 0.1201-3.0399 0.3501-4.6199zm-162.47-13.49c1.0798-0.89 4.7999-1.97 10.09-3.04 1.6901-0.35 3.54-0.69 5.51-1.02 0.99-0.16 2.01-0.33 3.05-0.49 0.53-0.08 1.0601-0.16 1.5901-0.2401 1.6099-0.24 3.2699-0.47 4.98-0.69 3.4099-0.44 6.98-0.85 10.61-1.19 17.25-1.6299 32.81-3.86 34.58-4.96 0.27-0.17 0.5601-0.31 0.86-0.44 0.0599-0.03 0.12-0.05 0.1801-0.08 0.61-0.25 1.27-0.43 1.97-0.54l0.1799-0.03c0.27-0.04 0.53-0.07 0.8-0.09h0.02c0.09-0.01 0.1799-0.02 0.27-0.02h0.23c0.3301-0.01 0.6699-0.01 1.02 0.01 0.05 0 0.1 0 0.1599 0.01 0.41 0.02 0.8401 0.06 1.27 0.12 0.04 0.01 0.0801 0.01 0.1201 0.02 0.4399 0.06 0.8799 0.14 1.3199 0.2401h0.0299c0.4501 0.1 0.9001 0.22 1.3501 0.35 0.0601 0.02 0.12 0.03 0.1799 0.05 0.45 0.14 0.89 0.28 1.3401 0.45 0.02 0 0.03 0.01 0.04 0.01 0.45 0.17 0.8899 0.35 1.3298 0.54 0.04 0.02 0.0801 0.04 0.1201 0.05 0.4399 0.2 0.8799 0.41 1.3099 0.63 0.05 0.03 0.1 0.06 0.16 0.08 0.87 0.46 1.71 0.96 2.52 1.52 0.05 0.03 0.1 0.06 0.1499 0.1 0.4001 0.27 0.79 0.56 1.1602 0.85 0.0399 0.03 0.0698 0.06 0.1099 0.09 0.3701 0.3 0.74 0.6 1.0801 0.91l0.04 0.04c0.3499 0.31 0.6799 0.64 1 0.97 0.0499 0.05 0.0999 0.1 0.1399 0.16 0.3201 0.33 0.6201 0.67 0.9 1.02 0.01 0.02 0.03 0.04 0.04 0.0601 0.2699 0.34 0.5199 0.68 0.7599 1.03 0.03 0.05 0.0601 0.1 0.0901 0.14 0.23 0.36 0.45 0.72 0.64 1.09 0.0299 0.06 0.0699 0.12 0.1 0.18 0.1899 0.38 0.36 0.76 0.51 1.14 0.4 1.05 0.6799 2.17 0.8401 3.44 0.8298 6.9-2.0801 18.29-11.22 45.96-11.49 34.78-19.74 51.58-28.69 53.17-0.47 0.09-0.9299 0.1299-1.3999 0.1299-3.1201 0.01-6.3501-1.7799-9.8501-5.24-0.2-0.2-0.4099-0.4099-0.6199-0.6299-0.6201-0.6401-1.25-1.3401-1.8901-2.0801-0.4299-0.5-0.8599-1.02-1.2899-1.5701-1.9601-2.4399-4.01-5.35-6.17-8.6899-17.53-27.09-27.07-42.09-32.22-51.55-5.03-9.24-5.87-13.21-5.87-18.01 4e-4 -5.6401 2.0104-11.92 4.4704-13.96zm-142.48 33.86c15.14-14.37 31.62-21.15 51.39-21.15 8.15 0 12.8 0.23 15.83 1.38 2.99 1.13 4.4 3.16 6.04 6.77 1.53 3.35 1.95 6.41 0.34 12.19-0.08 0.28-0.17 0.57-0.25 0.87-0.05 0.14-0.09 0.29-0.14 0.45-0.09 0.3-0.19 0.61-0.3 0.93-0.67 2.06-1.56 4.44-2.7 7.23-0.17 0.43-0.36 0.87-0.54 1.32-0.19 0.45-0.38 0.91-0.58 1.38-0.1 0.23-0.2 0.47-0.3 0.71-0.72 1.68-1.51 3.48-2.38 5.44-0.25 0.5601-0.51 1.13-0.77 1.71-0.39 0.87-0.8 1.77-1.22 2.7001-0.15 0.3099-0.29 0.62-0.4301 0.9399-0.18 0.4-0.36 0.8-0.55 1.2001-1.3 2.84-2.73 5.9199-4.3 9.2899-0.19 0.41-0.39 0.8201-0.58 1.2301-0.29 0.61-0.57 1.21-0.84 1.7999-0.55 1.17-1.09 2.3101-1.62 3.42-0.27 0.5599-0.53 1.1-0.78 1.64-0.34 0.71-0.67 1.4099-1 2.09-9.04 18.8-13.61 26.07-18.37 28.97-1.03 0.6199-2.07 1.0499-3.16 1.3398-7.75 2.0701-8.98 1-13.98-12.09-3.02-7.9001-10.51-20.37-16.64-27.71-13.5-16.16-13.93-22.9-2.1699-34.05zm46.14 310.27c-0.5 3.2699-1.93 5.2-4.6 7.1499-1.97 1.4399-4.58 2.71-7 3.52-1.66 0.55-3.25 0.89-4.46 0.89-7.27 0-28.37-15.6-41.76-30.87-6.35-7.24-9.37-12.89-9-19.07 0.36-5.9399 3.84-12.37 10.53-21.17 0.02-0.01 0.03-0.03 0.04-0.04 0.5-0.65 1-1.29 1.49-1.9099 0.12-0.1401 0.23-0.29 0.35-0.4301 0.49-0.61 0.99-1.2001 1.48-1.78 0.1-0.12 0.2-0.23 0.3-0.35 0.46-0.53 0.92-1.0601 1.38-1.5601 0.07-0.08 0.14-0.1699 0.22-0.25 0.5-0.54 1-1.0699 1.4901-1.59 0.12-0.12 0.24-0.25 0.36-0.37 0.5-0.5 0.99-1 1.48-1.47 0.08-0.0801 0.15-0.15 0.23-0.22 0.45-0.4301 0.89-0.8401 1.34-1.24 0.1-0.1001 0.21-0.1901 0.31-0.29 0.48-0.42 0.96-0.8301 1.43-1.23 0.12-0.1001 0.24-0.1901 0.36-0.29 0.46-0.38 0.9301-0.75 1.38-1.0901 0.05-0.0399 0.11-0.08 0.16-0.1199 0.45-0.3401 0.9-0.66 1.35-0.97 0.12-0.0901 0.24-0.1702 0.36-0.25 0.45-0.3101 0.9-0.6001 1.34-0.8701 0.11-0.0699 0.22-0.1299 0.33-0.1899 0.39-0.24 0.77-0.46 1.16-0.66 0.08-0.0499 0.17-0.1 0.26-0.15 0.43-0.22 0.85-0.4299 1.27-0.62 0.12-0.0499 0.23-0.1 0.35-0.16 0.42-0.1799 0.83-0.34 1.23-0.49 0.08-0.03 0.16-0.0499 0.2401-0.08 0.35-0.12 0.7-0.23 1.05-0.3199 0.09-0.03 0.19-0.05 0.29-0.0801 0.38-0.09 0.76-0.1699 1.12-0.23 0.1-0.01 0.2-0.03 0.3-0.04 0.36-0.0499 0.71-0.08 1.06-0.09 0.02 0 0.04-0.01 0.0601-0.01 0.02 0 0.04 0.01 0.06 0.01 0.31-0.01 0.62 0 0.92 0.03 0.09 0.01 0.19 0.02 0.28 0.0299 0.3 0.04 0.59 0.0801 0.87 0.1501 0.03 0.01 0.07 0.02 0.1 0.0299 0.28 0.0699 0.55 0.16 0.82 0.27 0.08 0.03 0.16 0.0699 0.24 0.1 0.26 0.1201 0.52 0.25 0.76 0.4 0.02 0.01 0.03 0.01 0.04 0.02 0.83 0.5299 1.83 1.6801 2.95 3.34 0.36 0.53 0.73 1.1101 1.11 1.74 0.12 0.21 0.25 0.42 0.38 0.64 0.13 0.2201 0.26 0.4501 0.39 0.6801s0.26 0.46 0.4 0.7c0.26 0.48 0.54 0.98 0.81 1.5 0.14 0.26 0.27 0.51 0.42 0.78 0.13 0.27 0.27 0.54 0.42 0.8201 0.13 0.2699 0.27 0.5499 0.42 0.8298 7.49 15.02 16.86 41.18 18.73 54.86 0.7597 5.5602 1.0097 9.2902 0.5997 12.06zm146.58 53.23c-1.6001 1.2799-3.5801 2.3099-5.9202 3.09-12.61 4.2599-35.27 1.4301-60.29-7.9301-21.61-8.0699-25.6-15.19-17.89-31.93 3.3-7.1801 9.26-22.25 13.23-33.47 3.98-11.23 10.71-24.17 14.97-28.76 3.74-4.03 5.75-6.0701 7.9102-6.4601 1.22-0.22 2.5 0.11 4.1399 0.88 1.28 0.6001 2.77 1.46 4.67 2.5901 1.09 0.6499 2.1801 1.46 3.2699 2.3999 7.9202 6.87 15.35 20.99 19.04 36.69 0.6901 2.9701 2.6001 8.1901 5.02 14 1.98 4.7401 4.3 9.8701 6.6101 14.49 10.17 20.38 11.54 29.37 5.24 34.41zm159.4 24.17l-3.38 7.3101c-0.09 0.09-0.1901 0.1799-0.2899 0.27-0.1001 0.08-0.2001 0.1599-0.3 0.24-4.77 3.6099-11.15 5.28-15.22 4.3999-1.17-0.26-2.16-0.71-2.8501-1.3999-0.46-0.47-3.5-1.1801-8.0399-1.97-4.9-0.8401-11.55-1.78-18.67-2.5801-29.1-3.26-41.24-9.71-41.24-21.92 0-5.8301 9.9-24.74 20.7-41.41 5.8401-9.01 11.94-17.37 16.89-22.66 0.0699-0.0701 0.1299-0.14 0.2-0.21 0.26-0.27 0.52-0.55 0.78-0.8101l0.3599-0.36c0.2101-0.2101 0.4202-0.42 0.6201-0.61 0.1199-0.13 0.25-0.24 0.3699-0.3601 0.2001-0.1899 0.4001-0.3699 0.5901-0.5499 0.13-0.12 0.25-0.23 0.37-0.33 0.2001-0.1801 0.4-0.3601 0.6-0.53 0.1101-0.0901 0.22-0.1899 0.3301-0.28 0.22-0.1799 0.4299-0.35 0.6399-0.52 0.0901-0.0699 0.1901-0.1499 0.28-0.22 0.25-0.2 0.5-0.38 0.75-0.5601 0.05-0.0399 0.1001-0.08 0.15-0.1099 0.62-0.4401 1.24-0.8301 1.84-1.1801 0.03-0.01 0.0601-0.03 0.0901-0.0499 0.27-0.1501 0.53-0.29 0.7999-0.4102 0.0599-0.0299 0.12-0.0599 0.1801-0.0898 0.23-0.1101 0.47-0.2201 0.7-0.3101 0.0701-0.03 0.14-0.0601 0.21-0.0901 0.22-0.09 0.4501-0.1699 0.6801-0.25 0.0599-0.02 0.13-0.0399 0.2001-0.0599 0.23-0.08 0.47-0.14 0.7-0.2001 0.0601-0.0199 0.11-0.0299 0.1699-0.0499 0.27-0.0599 0.54-0.11 0.8101-0.16 0.01 0 0.03 0 0.04-0.01 0.3-0.04 0.59-0.08 0.8899-0.1 0.17-0.01 0.3501-0.01 0.52-0.01 0.1401 0 0.27-0.0099 0.4-0.0099 0.17 0 0.34 0.0199 0.51 0.0299 0.15 0.01 0.2999 0.02 0.4501 0.04 0.1599 0.0099 0.33 0.0399 0.5 0.0699 0.1499 0.02 0.2999 0.05 0.45 0.0801 0.1699 0.03 0.3301 0.0699 0.5 0.1099 0.1499 0.04 0.3101 0.0801 0.47 0.1301 0.16 0.0499 0.3201 0.1 0.49 0.1499 0.16 0.0601 0.3201 0.1201 0.48 0.1801 0.16 0.0599 0.3201 0.12 0.48 0.1901 0.17 0.08 0.3401 0.1599 0.51 0.24 0.16 0.0699 0.3101 0.1399 0.47 0.22 0.1802 0.1 0.3701 0.2 0.5601 0.3101 0.14 0.0798 0.28 0.1499 0.42 0.24 0.26 0.1499 0.5199 0.3199 0.7899 0.49 0.1201 0.09 0.25 0.1699 0.3801 0.26 0.27 0.1899 0.5499 0.3899 0.83 0.5999 0.12 0.0901 0.26 0.2001 0.39 0.3 0.21 0.17 0.4299 0.3401 0.6399 0.52 0.1501 0.12 0.29 0.24 0.4301 0.37 0.2101 0.1801 0.42 0.36 0.63 0.5499 0.15 0.1301 0.3 0.27 0.45 0.4001 0.2101 0.2 0.42 0.3999 0.6301 0.6099 0.1499 0.1401 0.2999 0.29 0.45 0.4401 0.22 0.2201 0.4399 0.4401 0.6699 0.67 0.1401 0.1499 0.29 0.3 0.4301 0.46 0.24 0.25 0.4801 0.5 0.7201 0.77 0.1399 0.1499 0.2699 0.29 0.4099 0.45 0.27 0.3 0.54 0.6101 0.8201 0.9301 0.1099 0.12 0.22 0.25 0.33 0.38 0.39 0.45 0.7899 0.9199 1.1901 1.3999 0.6099 0.74 1.21 1.51 1.7999 2.3101 0.39 0.54 0.7799 1.0901 1.17 1.66 0.1899 0.2799 0.3799 0.5699 0.5699 0.86 0.39 0.5801 0.77 1.1699 1.14 1.77 0.37 0.6 0.74 1.23 1.11 1.86 0.73 1.26 1.4501 2.5599 2.14 3.91 0.35 0.6699 0.6899 1.36 1.03 2.0499 0.34 0.6901 0.6799 1.39 1 2.1 0.33 0.7101 0.6499 1.4301 0.97 2.16 0.3201 0.7201 0.64 1.4501 0.9399 2.1901 0.77 1.84 1.51 3.73 2.2001 5.6499 0.2799 0.76 0.5599 1.53 0.8199 2.3101 0.54 1.54 1.05 3.11 1.53 4.6699v0.01c0.98 3.1401 1.8401 6.3 2.5901 9.4301v0.01c0.2699 1.13 0.5299 2.25 0.7699 3.36 0.12 0.5701 0.24 1.13 0.35 1.6799 2.2594 11.15 2.9494 21.55 1.5194 28.57zm134.84 13.59c-1.5901 1.2799-3.78 2.4199-6.79 3.6399-8.1001 3.3201-24.93 6-38.37 6.6801-6.3298 0.3199-11.9 0.2-15.46-0.52-3.83-0.77-7.6399-3.1901-10.78-6.37-0.3199-0.3101-0.6299-0.64-0.9299-0.98-1.5-1.66-2.8201-3.5-3.89-5.41-2.2599-4.0599-3.35-8.4-2.48-11.99 0.9701-4.02 4.9501-11.72 8.85-17.11 3.89-5.39 11.1-16.79 16.02-25.32 4.91-8.53 11.08-15.51 13.7-15.51 5.5601 0 13.85 8.1401 21.91 21.53 3.15 5.23 9.4 14.49 13.89 20.6 1.2 1.6299 2.3401 3.5 3.37 5.45 2.8199 5.33 4.79 11.31 4.79 15.13 0 4.94-0.89 7.8199-3.83 10.18zm140.24-45.21c-5.52 6.35-14.35 12.74-26.68 19.63-20.33 11.38-29.61 13.71-35.98 8.6699-0.42-0.3398-0.83-0.7-1.2301-1.1099h-0.01c-0.5999-0.6001-1.1299-1.23-1.5798-1.8901-0.3401-0.49-0.6401-1-0.9001-1.5299-1.0999-2.28-1.4399-4.92-0.96-8.1 0.0801-0.48 0.17-0.96 0.27-1.46 0.49-2.25 1.3401-4.74 2.5801-7.55 0.5499-1.25 1.1699-2.5601 1.8799-3.9301 0.52-1.0299 1.0901-2.1 1.71-3.2 2.04-3.6901 4.5701-7.8099 7.6101-12.43 2.35-3.58 4.6499-7.3199 6.76-10.96 2.1-3.64 4.02-7.1699 5.59-10.32 2.2201-4.4299 3.77-8.1099 4.24-10.24 1.6901-7.6599 3.78-9.3999 11.35-9.3999 4.52 0 8.45 1.5699 13.06 5.51 1.49 1.27 3.0601 2.7999 4.75 4.6 0.51 0.5399 1.02 1.11 1.55 1.7 0.52 0.59 1.0599 1.2101 1.6199 1.85 0.47 0.55 0.92 1.0901 1.3601 1.6301 0.22 0.2699 0.4299 0.5399 0.6499 0.8099 0.6401 0.7999 1.25 1.6 1.8201 2.38v0.01c0.58 0.79 1.12 1.5599 1.63 2.33 0.5099 0.77 0.99 1.53 1.4301 2.29 0.1399 0.25 0.2899 0.5099 0.4299 0.7599 0.29 0.5 0.55 0.9901 0.8 1.4901 5.2699 10.31 4.1798 19.34-3.7501 28.46zm43.28-137.99c-0.1702 4.9-0.54 10.2-1.27 15.49-1.9001 13.95-6.23 27.82-15.62 34.22-4.2 2.8599-7.97 5.7999-12.7 4.47-5.0701-1.41-11.32-8.2001-16.13-10.91-16.73-9.42-41.53-18.2-53.11 4.0599-3.27 6.27-4.8101 13.27-7.2 19.92-6.1501 17.18-18.78 37.5-32.33 49.84-6.03 5.48-19.12 13.21-27.09 7.95-2.78-1.8398-4.8099-4.6099-6.58-7.4399-7.1001-11.34-10.93-24.36-16.14-36.68-3.0898-7.3401-6.7799-14.6-11.81-20.82-2.98-3.6899-12.59-15.11-17.82-15.11-13.86-0.01-27.43 20.29-34.06 30.43-6.45 9.8699-12.68 28.45-22.49 35.13-10.24 6.9801-22.16-1.22-25.33-11.32-6.8198-21.68-13.82-42.82-19.52-64.83-1.9701-7.62-8.03-13-15.2-16.21-8.7-3.9001-19.05-4.0901-27.56 0.45-4.73 2.52-8.42 6.61-11.86 10.72-5.0601 6.04-9.8601 12.32-14.1 18.96-4.1099 6.4501-6.3599 14.51-11.5 20.08-7.71 8.37-17.88 27.56-29.83 29.08-6 0.77-12.08-1.45-17.05-4.89-10.65-7.37-14.3-21.11-19.38-32.41-4.8699-10.82-9.47-21.79-14.53-32.52-6.85-14.53-16.68-35.39-33.82-39.8-8.24-2.12-16.56 4.89-22.92 9.5701-9.9701 7.33-18.61 16.47-25.38 26.83-5.32 8.16-9.14 26.2-21.92 25.16-6.9-0.5601-8.19-7.9401-10.99-13.6-9.5699-19.34-19.24-38.3-30.01-56.84-6.33-10.92-14.15-18.17-26.4-18.17-1.72 0-3.52 0.1501-5.42 0.4401-10.68 1.64-20.21 7.37-29.65 12.64-6.54 3.6499-14.3 7.23-21.26 4.4299-6.82-2.75-9.99-10.51-11.81-17.63-7.66-29.9-3.85-62.59 10.5-89.92 4.56-8.6801 12.7-12.45 20.18-4.11 3.14 3.51 4.93 7.99 6.86 12.28 3.21 7.1699 8.62 12 12.97 18.35 6.27 9.1401 12.54 18.27 18.81 27.41 0.86 1.25 1.77 2.5499 3.12 3.24 0.28 0.1499 0.58 0.25 0.89 0.3199 9.74 2.1901 34.47-30.86 38.87-36.44 4.49-5.71 9.64-12.16 11.44-14.35 4.14-5.0399 21.63-42.1 22.68-48.08 0.16-0.9 3.04-4.8 6.41-8.6801 8.14-9.35 14.53-0.12 21.65 6.9 15.98 15.77 32.28 30.13 43.15 50.26 3.2 5.91 5.97 12.08 10.02 17.44 4.36 5.78 15.6 15.28 23.29 15.38 13.55 0.1799 28.47-24.08 35.23-34.07 6.88-10.17 12.66-21.07 17.21-32.48 4.3499-10.9 5.8799-21.26 16.01-28.56 12.45-8.96 16.53 15.48 18.96 22.5 5.51 15.96 13.76 30.81 21.93 45.53 3.4 6.13 6.9299 12.42 12.32 16.91 14.8 12.34 34.38-0.66 46.8-10.29 8.1801-6.35 15.31-14.07 20.95-22.76 4.1399-6.39 5.6299-19.98 13.63-22.5 1.1201 3.2301 1.4102 6.8101 2.1301 10.22 4.6199 22.04 18.29 41.84 36.71 54.66 32.51 22.62 55.81-1.84 73.39-28.49 6.4501-9.77 38.22-50.34 48.98-25.07 5.14 12.08 7.36 25.94 12.01 38.35 5.9401 15.82 12.98 31.23 21.06 46.08 6.78 12.47 13.18 32.14 30.68 26.37 8.26-2.72 26.24-7.6399 34.46-2.9299 0.05 0.03 0.1 0.0599 0.14 0.09 1.3201 0.5499 2.41 1.27 3.27 2.16 1.59 1.6599 2.37 3.8799 2.3301 6.6799 0.8298 3.73 0.8699 7.92 0.8398 11.6-0.01 1.6199-0.0399 3.1399-0.01 4.48 0.0501 3.2198 0.0501 6.8997-0.0798 10.83z"/>
 <path d="m612.16 971.56c1.61-0.24 3.27-0.47 4.98-0.69-1.71 0.2201-3.3699 0.45-4.98 0.69z" fill="#E6E6E6"/>
 <path d="m607.52 972.29c0.99-0.17 2.0099-0.33 3.05-0.49-1.0401 0.1601-2.0601 0.33-3.05 0.49z" fill="#E6E6E6"/>
 <path d="m586.26 1274.7c3.74-4.0299 5.75-6.0699 7.91-6.46 1.22-0.22 2.5 0.11 4.14 0.88 1.28 0.6 2.77 1.46 4.67 2.59 1.09 0.65 2.18 1.4601 3.27 2.4 7.92 6.87 15.35 20.99 19.04 36.69 0.69 2.9701 2.6 8.1901 5.02 14 1.98 4.7401 4.3 9.8701 6.61 14.49 10.17 20.38 11.54 29.37 5.24 34.41-1.6 1.28-3.58 2.3101-5.92 3.0901-12.61 4.2599-35.27 1.4299-60.29-7.9301-21.61-8.0699-25.6-15.19-17.89-31.93 3.3-7.1799 9.26-22.25 13.23-33.47 3.9801-11.23 10.71-24.17 14.97-28.76z" fill="#fff"/>
 <path d="m522.79 1010.3c0.08-0.3 0.17-0.59 0.25-0.87-0.08 0.2799-0.17 0.5699-0.25 0.87z" fill="#E6E6E6"/>
 <path d="m522.65 1010.7c-0.09 0.3-0.19 0.61-0.3 0.9301 0.11-0.32 0.21-0.63 0.3-0.9301z" fill="#E6E6E6"/>
 <path d="m519.65 1018.9c-0.17 0.43-0.35 0.87-0.54 1.32 0.18-0.45 0.37-0.89 0.54-1.32z" fill="#E6E6E6"/>
 <path d="m519.11 1020.2c-0.19 0.45-0.38 0.91-0.58 1.38 0.2-0.4701 0.39-0.93 0.58-1.38z" fill="#E6E6E6"/>
 <path d="m518.23 1022.3c-0.72 1.68-1.51 3.48-2.38 5.44 0.87-1.9599 1.66-3.76 2.38-5.44z" fill="#E6E6E6"/>
 <path d="m515.08 1029.4c-0.39 0.87-0.8 1.77-1.22 2.7001 0.4199-0.9301 0.8299-1.8301 1.22-2.7001z" fill="#E6E6E6"/>
 <path d="m513.43 1033.1c-1.44 3.16-3.05 6.64-4.85 10.49-0.19 0.41-0.39 0.8201-0.58 1.2301 0.19-0.41 0.38-0.8201 0.57-1.2301 1.8-3.85 3.41-7.33 4.86-10.49z" fill="#E6E6E6"/>
 <path d="m508 1044.8c-1.14 2.4299-2.21 4.72-3.24 6.86 1.02-2.1501 2.1-4.4301 3.24-6.86z" fill="#E6E6E6"/>
 <path d="m504.76 1051.7c-0.34 0.71-0.67 1.4099-1 2.09 0.32-0.6801 0.66-1.3801 1-2.09z" fill="#E6E6E6"/>
 <path d="m516.66 990.44c2.99 1.13 4.4 3.16 6.04 6.77 1.53 3.35 1.95 6.41 0.34 12.19-0.08 0.28-0.17 0.5699-0.25 0.87-0.05 0.14-0.09 0.29-0.14 0.45-0.09 0.3-0.19 0.61-0.3 0.9301-0.67 2.06-1.56 4.44-2.7 7.23-0.17 0.43-0.36 0.87-0.54 1.32-0.19 0.45-0.38 0.91-0.58 1.38-0.1 0.23-0.2 0.47-0.3 0.71-0.72 1.68-1.51 3.48-2.38 5.44-0.25 0.5601-0.51 1.13-0.77 1.71-0.39 0.87-0.8 1.77-1.22 2.7001-0.15 0.3099-0.29 0.62-0.43 0.9399-1.45 3.16-3.06 6.64-4.86 10.49-0.19 0.41-0.38 0.8201-0.57 1.2301-1.14 2.4299-2.22 4.71-3.24 6.86-0.34 0.71-0.68 1.4099-1 2.09-9.04 18.8-13.61 26.07-18.37 28.97-1.03 0.62-2.07 1.05-3.16 1.34-7.75 2.0701-8.98 1-13.98-12.09-3.02-7.9-10.51-20.37-16.64-27.71-13.5-16.16-13.93-22.9-2.17-34.05 15.14-14.37 31.62-21.15 51.39-21.15 8.15-2e-4 12.8 0.2298 15.83 1.3798z" fill="#fff"/>
 <path d="m475.83 1252.7c0.14 0.27 0.28 0.55 0.42 0.83-0.15-0.2799-0.29-0.56-0.42-0.83z" fill="#E6E6E6"/>
 <path d="m474.99 1251.1c0.14 0.25 0.28 0.52 0.42 0.78-0.15-0.2699-0.28-0.5199-0.42-0.78z" fill="#E6E6E6"/>
 <path d="m473.78 1248.9c0.14 0.23 0.27 0.46 0.4 0.7-0.14-0.24-0.27-0.47-0.4-0.7z" fill="#E6E6E6"/>
 <path d="m473.01 1247.6c0.13 0.21 0.25 0.42 0.38 0.64-0.13-0.2199-0.26-0.43-0.38-0.64z" fill="#E6E6E6"/>
 <path d="m468.91 1242.5c0.02 0.01 0.03 0.01 0.04 0.02 0.83 0.5299 1.83 1.6799 2.95 3.34 0.36 0.53 0.73 1.11 1.11 1.74 0.12 0.21 0.25 0.42 0.38 0.64s0.26 0.45 0.39 0.6801c0.13 0.23 0.26 0.46 0.4 0.7 0.26 0.48 0.54 0.98 0.81 1.5 0.14 0.26 0.27 0.51 0.42 0.78 0.13 0.27 0.27 0.5399 0.42 0.8199 0.13 0.27 0.27 0.55 0.42 0.83 7.49 15.02 16.86 41.18 18.73 54.86 0.76 5.5599 1.01 9.2899 0.6 12.06-0.5 3.27-1.93 5.2001-4.6 7.15-1.97 1.4399-4.58 2.71-7 3.52-1.66 0.5499-3.25 0.89-4.46 0.89-7.27 0-28.37-15.6-41.76-30.87-6.35-7.24-9.37-12.89-9-19.07 0.36-5.9399 3.84-12.37 10.53-21.17 0.02-0.01 0.03-0.03 0.04-0.04 0.5-0.65 1-1.29 1.49-1.91 0.12-0.14 0.23-0.29 0.35-0.4299 0.49-0.6101 0.99-1.2001 1.48-1.78 0.1-0.12 0.2-0.23 0.3-0.35 0.46-0.53 0.92-1.0601 1.38-1.5601 0.07-0.08 0.14-0.17 0.22-0.25 0.5-0.54 1-1.0699 1.49-1.59 0.12-0.12 0.24-0.25 0.36-0.37 0.5-0.5 0.99-1 1.48-1.47 0.08-0.0801 0.15-0.15 0.23-0.2201 0.45-0.4299 0.89-0.84 1.34-1.24 0.1-0.1 0.21-0.1899 0.31-0.2899 0.48-0.42 0.96-0.8301 1.43-1.2301 0.12-0.1 0.24-0.1899 0.36-0.2899 0.46-0.38 0.93-0.75 1.38-1.0901 0.05-0.0399 0.11-0.08 0.16-0.12 0.45-0.34 0.9-0.6599 1.35-0.97 0.12-0.09 0.24-0.17 0.36-0.25 0.45-0.3099 0.9-0.6 1.34-0.87 0.11-0.0699 0.22-0.13 0.33-0.1899 0.39-0.24 0.77-0.4601 1.16-0.66 0.08-0.05 0.17-0.1 0.26-0.15 0.43-0.22 0.85-0.4299 1.27-0.62 0.12-0.05 0.23-0.1 0.35-0.16 0.42-0.1799 0.83-0.34 1.23-0.49 0.08-0.03 0.16-0.0499 0.24-0.08 0.35-0.12 0.7-0.23 1.05-0.3201 0.09-0.0299 0.19-0.0499 0.29-0.08 0.38-0.09 0.76-0.17 1.12-0.23 0.1-0.01 0.2-0.03 0.3-0.04 0.36-0.0499 0.71-0.08 1.06-0.09 0.02 0 0.04-0.01 0.06-0.01s0.04 0.01 0.06 0.01c0.31-0.01 0.62 0 0.92 0.03 0.09 0.01 0.19 0.02 0.28 0.0299 0.3 0.04 0.59 0.0801 0.87 0.15 0.03 0.01 0.07 0.02 0.1 0.03 0.28 0.0699 0.55 0.16 0.82 0.27 0.08 0.03 0.16 0.0699 0.24 0.1 0.26 0.1202 0.52 0.2502 0.76 0.4002z" fill="#fff"/>
 <path d="m481.23 647.51c26.6 15.59 40.89 42.12 40.89 75.9 0 13.09-2.03 24.93-5.38 31.45-13 25.24-37.93 51.96-55.76 59.75-12.58 5.5-35.94 5.85-45.02 0.68-20.9-11.91-32.63-38.41-32.25-72.84 0.89-81.62 45.74-125.28 97.52-94.94z"/>
 <path d="m1540 575.83c-8.7-28.38-33.89-61.38-27.34-91.67 0.8199-3.81 2.1399-7.57 4.0599-11.27 9.47-18.29 26.17-31.53 39.99-46.8 43.48-48.04 57.8-120.59 35.82-181.55-21.97-60.96-79.29-107.69-143.43-116.93-44.5-6.42-90.97 5.4-127.97 30.68-5.41 3.7-10.54 7.86-15.52 12.16 4.58-3.32 9.26-6.21 14.48-8.98-19.01 13.56-34.79 38.26-56.57 47.3 5.4001-4.19 11.4-9.83 18.36-17.01 1-1.03 1.97-2.02 2.9299-2.99-19.51 16.26-39.75 27.05-69.68 10.59-42.8-23.55-88.65-42.43-134.93-57.9-177.61-59.37-374.91-60.19-554.45-8.53-16.4 4.72-33.04 9.9301-50.09 9.34-35.01-1.21-48.9-34.04-72.81-54.44-28.16-24.02-62.23-40.64-99.2-44.94-76.55-9.21-150.32 31.36-187.66 98.28-37.81 67.78-24.46 162.28 19.29 224.27 8.97 12.71 19.41 24.75 24.93 39.31 10.71 28.3-9.2 57-23.03 80.15-16.66 27.9-30.72 57.59-42.75 87.75-45.26 113.41-61.38 237.41-54.22 358.94 3.6 61.26 13.15 122.18 28.39 181.62 7.7 30.05 16.87 59.72 27.52 88.86 18.53 50.71 42.8 99.43 73.2 144.09 50.34 73.96 118.99 137.46 197.43 182.46 96.39 55.3 218.53 83.19 327.76 99.24 273.58 40.21 573.95-59.45 728.36-298.06 16.63-25.7 31.52-52.31 44.13-80.22 37.66-83.35 53.83-173.21 71.14-262.36 1-5.17 1.99-10.34 2.96-15.52-0.1001 0.49-0.21 0.98-0.3301 1.47 0.6001-3.28 1.1901-6.55 1.78-9.81-0.08 0.67-0.1699 1.35-0.27 2.05 15.35-83.17 26-167.83 21.27-252.45-2.5898-46.42-9.8998-92.65-23.55-137.13zm-145.04-382.37c27.54-7.33 45.94-5.94 72.27 5.46 40.76 17.65 64.58 48.31 69.67 89.67 1.47 11.93-5.05 53.2-10.87 68.81-2.48 6.67-19.71 33.64-30.26 47.38-15.61 20.32-29.72 0.06-41.12-14.85-22.4-29.27-47.96-56.11-76.08-79.94-10.77-9.14-69.23-41.25-69.22-56.39 0.0201-17.62 45.25-49.4 85.61-60.14zm-1209.2-36.43c23.08-30.02 58.89-49.59 96.39-53.97 35.51-4.15 64.57 18.25 92.45 38.43 12.82 9.28 24.78 26.47 15.25 42.02-6.24 10.17-17.48 15.94-27.91 21.74-60.73 33.78-110.79 87.24-148.25 144.4 0 0.01-0.01 0.03-0.02 0.04-3.22 4.92-7.86 8.95-10.32 8.95-2.47 0-9.88-11.4-16.47-25.32-28.17-59.51-46.2-117.66-1.12-176.29zm1312.3 713.39c-16.51 16.51-59.89 8.55-80.35 9.0099-36.15 0.82-72.31 2.66-108.15 7.63-13.44 1.86-27.24 4.31-38.64 11.66-26.22 16.9-24.85 58.98 3.64 72.41 15.68 7.39 33.75 6.68 51.06 7.22 36.34 1.13 132.4 7.83 139.39 52.74 4.1901 26.92 2.33 43.89-5.5099 50.24-40.7 32.95-132.65-32.83-165.8 18.18-12.93 19.9 11.52 42.5 30.68 49.13 7.05 2.4399 23.56 9.53 36.71 15.75 13.15 6.23 26.65 11.85 30 12.5 15.51 2.99 29.41 15.08 29.35 25.54-0.2 33.6-43.38 80.65-62.39 105.81-27.15 35.92-57.77 69.22-91.26 99.32-114.3 102.75-248.86 148.22-390.61 157.49-115.24 7.5399-231.69-6.4901-341.23-43.37-98.66-33.22-197.14-78.77-268.73-156.5-51.94-56.41-72.74-119.69-106.24-185.99-23.83-47.15-32.7-89.4-20.77-98.98 38.23-30.69 87.58-41.06 126.13-72.22 10.73-8.68 21.77-21.08 18.46-34.47-2.36-9.54-11.75-16.03-21.38-17.95-9.63-1.93-19.58-0.17-29.24 1.58-21.34 3.88-42.68 7.76-64.02 11.63-14.13 2.57-29.24 5.03-42.4-0.69-12.07-5.25-20.51-16.78-25.01-29.16-6.63-18.21-16.64-48.91 3.16-60.95 25.47-15.48 70.13-15.8 98.93-13.95 19.36 1.25 39.22 3.13 57.84-2.35 22.23-6.54 52.49-38.35 30.49-60.82-5.9-6.03-13.86-9.53-21.68-12.69-26.9-10.89-54.74-19.48-83.09-25.67-23.11-5.05-50.68-6.62-66.69-26.97-13.14-16.7-4.66-54.85 13.15-66.29 20.18-12.96 65.67 1.9301 86.15 8.79 20.31 6.8 40.2 16.56 61.61 17.27s45.43-11.34 49.14-32.44c4.38-24.91-19.92-44.57-41.3-58.1l-84.72-53.61c-9.7-6.14-20.19-13.35-22.84-24.51-2.21-9.27 1.67-18.8 5.67-27.45 33.04-71.54 80.43-136.31 138.09-189.98 28.83-26.83 60.24-50.9 93.72-71.66 31.99-19.83 70.78-48.79 109.77-48.77 30.08 0.01 26.49 48.28 27.62 67.98 2.24 39.27 8.91 78.43 19.15 116.4 6.53 24.2 19.33 95.5 47.34 104.84 20.71 6.9 43.12-20.95 49.82-36.91 7.9401-18.93 8.3-40.04 8.54-60.55 0.53-44.7 1.0601-89.4 1.5901-134.1 0.24-20.21-7.9-80.97 16.57-93.05 3.84-1.88 26.86-4.37 51.16-5.54 56.61-2.72 58.86-1.44 61.2 35.04 3.38 52.7-11.13 108-15.39 160.51-2.1901 26.91-4.1901 57.77-1.8 84.66 1.6599 18.66 7.8899 37.49 20.8 51.06 43.91 46.18 67.86-8.4 79.61-45.76 12.75-40.55 26.32-80.84 40.7-120.84 10.81-30.08 26.24-111.61 63.86-121.68 20.24-5.42 45.8-2.09 69.07 8.99 12.77 6.08 26.88 12.14 31.38 13.47 17.22 5.09 20.59 14.59 11.41 32.2-2.6901 5.14-4.88 11.06-4.88 13.14s-8.8201 21.23-19.6 42.56c-10.78 21.33-19.6 40.87-19.6 43.44 0 2.56-5.72 19.62-12.7 37.91-13.75 35.97-23.23 71.18-23.23 86.25 0 10.99 10.52 23.76 19.57 23.76 16.92 0 49.58-22.93 88.22-61.95 15.27-15.41 32.58-34.61 38.45-42.65 17.11-23.43 48.82-73.52 51.12-80.75 1.16-3.65 5.66-10.48 10.01-15.17 13.73-14.82 22.48-11.87 57.03 19.23 66.54 59.9 121.21 128.78 157.39 211.15 11.9 27.11 20.75 54.9 29.26 83.2 4.2401 14.12 15.33 32.19 11.92 47.33-11.04 49.03-112.81 51.77-151.04 58.91-13.1 2.44-26.76 4.85-37.58 12.63-31.54 22.68-2.73 56.89 23.98 67.59 19.96 8 42.11 8.21 63.59 7.39 25.57-0.99 74.49-7.79 96.85 8.58 12.04 8.8203 17.32 52.57 7.5198 62.37z"/>
 <path d="m282.11 103.06c35.51-4.15 64.57 18.25 92.45 38.43 12.82 9.28 24.78 26.47 15.25 42.02-6.24 10.17-17.48 15.94-27.91 21.74-60.73 33.78-110.79 87.24-148.25 144.4 0 0.01-0.01 0.03-0.02 0.04-3.22 4.92-7.86 8.95-10.32 8.95-2.47 0-9.88-11.4-16.47-25.32-28.17-59.51-46.2-117.66-1.12-176.29 23.08-30.02 58.89-49.59 96.39-53.97z" fill="#E6E6E6"/>
 <path d="m159.31 438.87c-0.47 1.17-0.96 2.38-1.49 3.63 0.52-1.25 1.02-2.46 1.49-3.63z" fill="#E6E6E6"/>
 <path d="m1270.8 898.72c11.4-7.35 25.2-9.8 38.64-11.66 35.84-4.97 72-6.81 108.15-7.63 20.46-0.46 63.84 7.5 80.35-9.0099 9.7999-9.8 4.5199-53.55-7.52-62.37-22.36-16.37-71.28-9.57-96.85-8.58-21.48 0.82-43.63 0.61-63.59-7.39-26.71-10.7-55.52-44.91-23.98-67.59 10.82-7.78 24.48-10.19 37.58-12.63 38.23-7.14 140-9.88 151.04-58.91 3.4099-15.14-7.6801-33.21-11.92-47.33-8.5099-28.3-17.36-56.09-29.26-83.2-36.18-82.37-90.85-151.25-157.39-211.15-34.55-31.1-43.3-34.05-57.03-19.23-4.35 4.69-8.85 11.52-10.01 15.17-2.3 7.23-34.01 57.32-51.12 80.75-5.87 8.04-23.18 27.24-38.45 42.65-38.64 39.02-71.3 61.95-88.22 61.95-9.0499 0-19.57-12.77-19.57-23.76 0-15.07 9.4801-50.28 23.23-86.25 6.98-18.29 12.7-35.35 12.7-37.91 0-2.57 8.8199-22.11 19.6-43.44 10.78-21.33 19.6-40.48 19.6-42.56s2.1899-8 4.88-13.14c9.1801-17.61 5.8099-27.11-11.41-32.2-4.5-1.33-18.61-7.39-31.38-13.47-23.27-11.08-48.83-14.41-69.07-8.99-37.62 10.07-53.05 91.6-63.86 121.68-14.38 40-27.95 80.29-40.7 120.84-11.75 37.36-35.7 91.94-79.61 45.76-12.91-13.57-19.14-32.4-20.8-51.06-2.39-26.89-0.39-57.75 1.8-84.66 4.2599-52.51 18.77-107.81 15.39-160.51-2.34-36.48-4.59-37.76-61.2-35.04-24.3 1.17-47.32 3.66-51.16 5.54-24.47 12.08-16.33 72.84-16.57 93.05-0.53 44.7-1.0601 89.4-1.5901 134.1-0.24 20.51-0.6 41.62-8.54 60.55-6.7 15.96-29.11 43.81-49.82 36.91-28.01-9.34-40.81-80.64-47.34-104.84-10.24-37.97-16.91-77.13-19.15-116.4-1.13-19.7 2.46-67.97-27.62-67.98-38.99-0.02-77.78 28.94-109.77 48.77-33.48 20.76-64.89 44.83-93.72 71.66-57.66 53.67-105.05 118.44-138.09 189.98-4 8.65-7.8799 18.18-5.67 27.45 2.65 11.16 13.14 18.37 22.84 24.51l84.72 53.61c21.38 13.53 45.68 33.19 41.3 58.1-3.71 21.1-27.73 33.15-49.14 32.44s-41.3-10.47-61.61-17.27c-20.48-6.86-65.97-21.75-86.15-8.79-17.81 11.44-26.29 49.59-13.15 66.29 16.01 20.35 43.58 21.92 66.69 26.97 28.35 6.19 56.19 14.78 83.09 25.67 7.82 3.16 15.78 6.66 21.68 12.69 22 22.47-8.26 54.28-30.49 60.82-18.62 5.48-38.48 3.6-57.84 2.35-28.8-1.85-73.46-1.53-98.93 13.95-19.8 12.04-9.79 42.74-3.16 60.95 4.5 12.38 12.94 23.91 25.01 29.16 13.16 5.72 28.27 3.26 42.4 0.69 21.34-3.87 42.68-7.75 64.02-11.63 9.66-1.75 19.61-3.51 29.24-1.58 9.63 1.92 19.02 8.41 21.38 17.95 3.31 13.39-7.73 25.79-18.46 34.47-38.55 31.16-87.9 41.53-126.13 72.22-11.93 9.58-3.06 51.83 20.77 98.98 33.5 66.3 54.3 129.58 106.24 185.99 71.59 77.73 170.07 123.28 268.73 156.5 109.54 36.88 225.99 50.91 341.23 43.37 141.75-9.27 276.31-54.74 390.61-157.49 33.49-30.1 64.11-63.4 91.26-99.32 19.01-25.16 62.19-72.21 62.39-105.81 0.0601-10.46-13.84-22.55-29.35-25.54-3.3499-0.65-16.85-6.27-30-12.5-13.15-6.22-29.66-13.31-36.71-15.75-19.16-6.63-43.61-29.23-30.68-49.13 33.15-51.01 125.1 14.77 165.8-18.18 7.8398-6.3499 9.7-23.32 5.5099-50.24-6.99-44.91-103.05-51.61-139.39-52.74-17.31-0.54-35.38 0.17-51.06-7.22-28.49-13.43-29.86-55.51-3.6398-72.41zm-594.04-145.82c4.8601-11.65 22.01-26.15 39.65-33.52 16.19-6.76 52.79-9.32 73.68-5.14 9.7999 1.96 21.74 4.21 26.55 5 4.8 0.8 18.63 6.35 30.73 12.33 23.29 11.52 46.62 35.81 47.58 49.55 1.77 25.34-6.7599 44.82-27.33 62.44-30.13 25.8-66.98 33.08-109.36 21.6-12.92-3.5-27.62-8.98-32.66-12.18-19.72-12.52-41.17-32.67-47.07-44.24-7.31-14.33-8.1499-40.59-1.77-55.84zm-293.09-10.45c0.89-81.62 45.74-125.28 97.52-94.94 26.6 15.59 40.89 42.12 40.89 75.9 0 13.09-2.03 24.93-5.38 31.45-13 25.24-37.93 51.96-55.76 59.75-12.58 5.5-35.94 5.85-45.02 0.68-20.9-11.91-32.63-38.41-32.25-72.84zm720.79 653.46c-9.7999 4.33-23.21 12.08-29.8 17.23-59.79 46.68-142.38 51.71-219.34 45.58-24.91-1.9801-49.22-5.1301-71.99-8.42-76.56-11.06-152.55-26.05-227.58-44.9-62.47-15.69-119.88-41.38-161.17-93.89-55.52-70.64-77.57-190.68-27.27-270.74 16.42-26.15 21.65-41.83 49.88-60.24 27.42-17.88 58.34-30.16 90.05-37.97 49.2-12.11 100.35-13.85 151.02-13.14 75.58 1.05 151.1 7.41 225.8 18.99 38.14 5.92 76.08 13.19 113.7 21.81 42.05 9.63 87.99 25.68 120.47 56.48 39.12 37.08 48.45 100.65 52.28 152.13 4.48 60.29 0.0601 187.84-66.05 217.08zm26.82-495.38c-0.7 0.19-1.39 0.37-2.0601 0.55-0.6799 0.18-1.3398 0.34-1.99 0.5-0.4299 0.11-0.8599 0.21-1.28 0.31-0.3398 0.08-0.6699 0.16-1 0.23-1.0499 0.2401-2.0599 0.45-3.0399 0.63-1.12 0.21-2.2001 0.39-3.25 0.54-0.25 0.04-0.49 0.07-0.73 0.1-0.5699 0.07-1.14 0.14-1.7001 0.19-0.1699 0.02-0.3499 0.04-0.52 0.05-0.51 0.05-1.0199 0.08-1.5199 0.11-0.37 0.02-0.7401 0.04-1.11 0.05-0.4401 0.01-0.89 0.02-1.3301 0.02l-4.7-0.27c-0.48-0.06-0.97-0.13-1.45-0.21-2.3701-0.36-4.76-0.95-7.27-1.77-0.55-0.18-1.1101-0.37-1.67-0.57-1-0.36-2.0299-0.75-3.09-1.1899-0.72-0.28-1.45-0.59-2.2-0.92-2.1602-0.94-4.4501-2.02-6.9102-3.25-28.19-14.05-42.07-40.43-38.89-73.91 2.1699-22.9 25.13-70.2 42.52-87.58 35.23-35.23 84.88-15.15 99.22 40.13 14.64 56.44-10.87 113.92-56.03 126.26z" fill="#E6E6E6"/>
 <path d="m1119.9 1228.3c-0.1702 4.9-0.54 10.2-1.27 15.49-1.9001 13.95-6.23 27.82-15.62 34.22-4.2 2.8599-7.97 5.7999-12.7 4.47-5.0701-1.41-11.32-8.2001-16.13-10.91-16.73-9.42-41.53-18.2-53.11 4.0599-3.27 6.27-4.8101 13.27-7.2 19.92-6.1501 17.18-18.78 37.5-32.33 49.84-6.03 5.48-19.12 13.21-27.09 7.95-2.78-1.8398-4.8099-4.6099-6.58-7.4399-7.1001-11.34-10.93-24.36-16.14-36.68-3.0898-7.3401-6.7799-14.6-11.81-20.82-2.98-3.6899-12.59-15.11-17.82-15.11-13.86-0.01-27.43 20.29-34.06 30.43-6.45 9.8699-12.68 28.45-22.49 35.13-10.24 6.9801-22.16-1.22-25.33-11.32-6.8198-21.68-13.82-42.82-19.52-64.83-1.9701-7.62-8.03-13-15.2-16.21-8.7-3.9001-19.05-4.0901-27.56 0.45-4.73 2.52-8.42 6.61-11.86 10.72-5.0601 6.04-9.8601 12.32-14.1 18.96-4.1099 6.4501-6.3599 14.51-11.5 20.08-7.71 8.37-17.88 27.56-29.83 29.08-6 0.77-12.08-1.45-17.05-4.89-10.65-7.37-14.3-21.11-19.38-32.41-4.8699-10.82-9.47-21.79-14.53-32.52-6.85-14.53-16.68-35.39-33.82-39.8-8.24-2.12-16.56 4.89-22.92 9.5701-9.9701 7.33-18.61 16.47-25.38 26.83-5.32 8.16-9.14 26.2-21.92 25.16-6.9-0.5601-8.19-7.9401-10.99-13.6-9.5699-19.34-19.24-38.3-30.01-56.84-6.33-10.92-14.15-18.17-26.4-18.17-1.72 0-3.52 0.1501-5.42 0.4401-10.68 1.64-20.21 7.37-29.65 12.64-6.54 3.6499-14.3 7.23-21.26 4.4299-6.82-2.75-9.99-10.51-11.81-17.63-7.66-29.9-3.85-62.59 10.5-89.92 4.56-8.6801 12.7-12.45 20.18-4.11 3.14 3.51 4.93 7.99 6.86 12.28 3.21 7.1699 8.62 12 12.97 18.35 6.27 9.1401 12.54 18.27 18.81 27.41 0.86 1.25 1.77 2.5499 3.12 3.24 0.28 0.1499 0.58 0.25 0.89 0.3199 9.74 2.1901 34.47-30.86 38.87-36.44 4.49-5.71 9.64-12.16 11.44-14.35 4.14-5.0399 21.63-42.1 22.68-48.08 0.16-0.9 3.04-4.8 6.41-8.6801 8.14-9.35 14.53-0.12 21.65 6.9 15.98 15.77 32.28 30.13 43.15 50.26 3.2 5.91 5.97 12.08 10.02 17.44 4.36 5.78 15.6 15.28 23.29 15.38 13.55 0.1799 28.47-24.08 35.23-34.07 6.88-10.17 12.66-21.07 17.21-32.48 4.3499-10.9 5.8799-21.26 16.01-28.56 12.45-8.96 16.53 15.48 18.96 22.5 5.51 15.96 13.76 30.81 21.93 45.53 3.4 6.13 6.9299 12.42 12.32 16.91 14.8 12.34 34.38-0.66 46.8-10.29 8.1801-6.35 15.31-14.07 20.95-22.76 4.1399-6.39 5.6299-19.98 13.63-22.5 1.1201 3.2301 1.4102 6.8101 2.1301 10.22 4.6199 22.04 18.29 41.84 36.71 54.66 32.51 22.62 55.81-1.84 73.39-28.49 6.4501-9.77 38.22-50.34 48.98-25.07 5.14 12.08 7.36 25.94 12.01 38.35 5.9401 15.82 12.98 31.23 21.06 46.08 6.78 12.47 13.18 32.14 30.68 26.37 8.26-2.72 26.24-7.6399 34.46-2.9299 0.05 0.03 0.1 0.0599 0.14 0.09 3.13 1.85 4.76 5.12 5.6001 8.84 0.8298 3.73 0.8699 7.92 0.8398 11.6-0.01 1.6199-0.0399 3.1399-0.01 4.48 0.0501 3.2197 0.0501 6.8996-0.0798 10.83z" fill="#666"/>
 <path d="m157.62 442.98c-0.47 1.1-0.96 2.23-1.47 3.4 0.51-1.1701 1-2.3001 1.47-3.4z" fill="#E6E6E6"/>
</svg>
